HIERARCHY
ROOT Hips
{
	OFFSET	0.00	0.00	0.00
	CHANNELS 6 Xposition Yposition Zposition Zrotation Xrotation Yrotation
	JOINT LeftUpLeg
	{
		OFFSET	 0.126116	-0.014019	-0.065224
		CHANNELS 3 Zrotation Xrotation Yrotation
		JOINT LeftLeg
		{
			OFFSET	 0.000000	 0.000000	 0.569914
			CHANNELS 3 Zrotation Xrotation Yrotation
			JOINT LeftFoot
			{
				OFFSET	 0.000000	 0.000000	 0.544423
				CHANNELS 3 Zrotation Xrotation Yrotation
				JOINT LeftToeBase
				{
					OFFSET	 0.000000	 0.000000	 0.207117
					CHANNELS 3 Zrotation Xrotation Yrotation
					End Site
					{
						OFFSET	 0.000000	 0.000000	 0.207117
					}
				}
			}
		}
	}
	JOINT RightUpLeg
	{
		OFFSET	-0.124023	-0.008373	-0.065224
		CHANNELS 3 Zrotation Xrotation Yrotation
		JOINT RightLeg
		{
			OFFSET	 0.000000	 0.000000	 0.570047
			CHANNELS 3 Zrotation Xrotation Yrotation
			JOINT RightFoot
			{
				OFFSET	 0.000000	 0.000000	 0.544354
				CHANNELS 3 Zrotation Xrotation Yrotation
				JOINT RightToeBase
				{
					OFFSET	 0.000000	 0.000000	 0.207540
					CHANNELS 3 Zrotation Xrotation Yrotation
					End Site
					{
						OFFSET	 0.000000	 0.000000	 0.207540
					}
				}
			}
		}
	}
	JOINT Spine
	{
		OFFSET	 0.000184	-0.007763	 0.117403
		CHANNELS 3 Zrotation Xrotation Yrotation
		JOINT Spine1
		{
			OFFSET	 0.000000	 0.000000	 0.137269
			CHANNELS 3 Zrotation Xrotation Yrotation
			JOINT Spine2
			{
				OFFSET	 0.000000	 0.000000	 0.156879
				CHANNELS 3 Zrotation Xrotation Yrotation
				JOINT LeftShoulder
				{
					OFFSET	 0.080501	-0.002496	 0.160144
					CHANNELS 3 Zrotation Xrotation Yrotation
					JOINT LeftArm
					{
						OFFSET	 0.000000	 0.000000	 0.164363
						CHANNELS 3 Zrotation Xrotation Yrotation
						JOINT LeftForeArm
						{
							OFFSET	 0.000000	 0.000000	 0.364576
							CHANNELS 3 Zrotation Xrotation Yrotation
							JOINT LeftHand
							{
								OFFSET	 0.000000	 0.000000	 0.360812
								CHANNELS 3 Zrotation Xrotation Yrotation
								JOINT LeftHandIndex1
								{
									OFFSET	 0.000000	 0.000000	 0.086006
									CHANNELS 3 Zrotation Xrotation Yrotation
									JOINT LeftHandIndex2
									{
										OFFSET	 0.000000	 0.000000	 0.047236
										CHANNELS 3 Zrotation Xrotation Yrotation
										JOINT LeftHandIndex3
										{
											OFFSET	-0.004284	-0.000551	 0.038166
											CHANNELS 3 Zrotation Xrotation Yrotation
											End Site
											{
												OFFSET	-0.004284	-0.000551	 0.038166
											}
										}
									}
								}
							}
						}
					}
				}
				JOINT Neck
				{
					OFFSET	 0.000000	 0.000000	 0.176489
					CHANNELS 3 Zrotation Xrotation Yrotation
					JOINT Head
					{
						OFFSET	 0.000000	-0.001747	 0.077940
						CHANNELS 3 Zrotation Xrotation Yrotation
						End Site
						{
							OFFSET	 0.000000	-0.001747	 0.077940
						}
					}
				}
				JOINT RightShoulder
				{
					OFFSET	-0.080363	 0.000306	 0.159706
					CHANNELS 3 Zrotation Xrotation Yrotation
					JOINT RightArm
					{
						OFFSET	 0.000000	 0.000000	 0.164196
						CHANNELS 3 Zrotation Xrotation Yrotation
						JOINT RightForeArm
						{
							OFFSET	 0.000000	 0.000000	 0.365611
							CHANNELS 3 Zrotation Xrotation Yrotation
							JOINT RightHand
							{
								OFFSET	 0.000000	 0.000000	 0.360648
								CHANNELS 3 Zrotation Xrotation Yrotation
								JOINT RightHandIndex1
								{
									OFFSET	 0.000000	 0.000000	 0.069977
									CHANNELS 3 Zrotation Xrotation Yrotation
									JOINT RightHandIndex2
									{
										OFFSET	 0.000000	 0.000000	 0.052305
										CHANNELS 3 Zrotation Xrotation Yrotation
										JOINT RightHandIndex3
										{
											OFFSET	 0.009002	-0.000782	 0.042196
											CHANNELS 3 Zrotation Xrotation Yrotation
											End Site
											{
												OFFSET	 0.009002	-0.000782	 0.042196
											}
										}
									}
								}
							}
						}
					}
				}
			}
		}
	}
}
MOTION
Frames:    13
Frame Time: 0.03333334
-0.082276	-2.607722	 1.161724	 6.820764	 1.081833	-3.801026	 18.278180	 10.249550	 176.322200	 1.761903	-25.913570	 0.615933	-133.067400	 86.777430	 129.619900	-2.340096	 35.716050	-0.166214	-33.676830	-42.449600	 169.605800	 10.089090	-21.257000	 3.973894	-29.574180	 77.736690	 33.530940	 2.336373	 35.953370	 0.173707	-42.929470	 6.769753	 2.105994	-2.935107	 2.536696	-1.135641	 1.173496	-2.854276	 1.071339	-94.541750	 58.896140	 174.114300	 0.210574	 18.729720	-44.092530	 22.639760	-6.163606	-12.402090	 11.672480	-35.098380	-0.729625	-4.841434	 20.478050	-2.990461	-3.792754	 22.592020	 2.112579	-4.737950	 6.369759	 0.098224	 0.096180	-5.383771	 0.354642	-0.611719	 1.945430	 2.224303	 89.364560	 61.982460	 178.992500	-15.843500	 54.070560	 1.962296	-32.550530	-6.280539	 12.394500	-20.036890	-14.414530	-6.910136	 6.165795	 16.643890	-0.700933	 2.832421	 35.732020	-7.815263	 2.269868	 16.115040	 2.786690
-0.084365	-2.631764	 1.159359	 6.898976	 1.082018	-3.733058	 17.987860	 11.448040	 175.711400	 1.882150	-25.577530	 0.660436	-125.272000	 86.330830	 121.819500	-2.328934	 36.987280	-0.197628	-33.551110	-41.946380	 169.551200	 10.157000	-21.815730	 4.099018	-30.521800	 78.754660	 34.291540	 2.335739	 36.027660	 0.175533	-44.269770	 6.755236	 2.089798	-3.150033	 2.142584	-1.404041	 1.351398	-2.688211	 1.236165	-94.540990	 58.963280	 174.104900	 0.040213	 18.809490	-43.641160	 23.323180	-6.492388	-12.661470	 12.111670	-35.704080	-0.435485	-4.850274	 20.518490	-3.053770	-3.784929	 22.688980	 2.104635	-4.725852	 6.510744	 0.089780	 0.118616	-5.411263	 0.339312	-0.393660	 1.941180	 2.176118	 89.357900	 61.911140	 178.979000	-15.494310	 54.111760	 1.335295	-33.595990	-6.610821	 12.649360	-20.752440	-14.608850	-7.490967	 6.167560	 15.955320	-0.644879	 2.890018	 35.089550	-7.863564	 2.406001	 15.436710	 2.734925
-0.085091	-2.639721	 1.158638	 6.923865	 1.079218	-3.696612	 17.891500	 11.818530	 175.499500	 1.929384	-25.502400	 0.678973	-122.558200	 86.194660	 119.107900	-2.324402	 37.472410	-0.209833	-33.507130	-41.747000	 169.538200	 10.153800	-22.047160	 4.138972	-30.598340	 78.951670	 34.363380	 2.336103	 35.985030	 0.174485	-44.682610	 6.748566	 2.075063	-3.218838	 2.014093	-1.497728	 1.407995	-2.629692	 1.290713	-94.538550	 58.992370	 174.105200	-0.004249	 18.852320	-43.482320	 23.540570	-6.598605	-12.742420	 12.242690	-35.902410	-0.349086	-4.853571	 20.528370	-3.075800	-3.782498	 22.719150	 2.102162	-4.721538	 6.560905	 0.086767	 0.125997	-5.419946	 0.331945	-0.321386	 1.941545	 2.162492	 89.357670	 61.881110	 178.979600	-15.388150	 54.114350	 1.142769	-33.927450	-6.718735	 12.730350	-20.984260	-14.670190	-7.674994	 6.169502	 15.728670	-0.620140	 2.905778	 34.911470	-7.876739	 2.450156	 15.215530	 2.718447
-0.085782	-2.647263	 1.157985	 6.947175	 1.076679	-3.662173	 17.800700	 12.154510	 175.301900	 1.974337	-25.452720	 0.697072	-120.257300	 86.056630	 116.809600	-2.319953	 37.931830	-0.221517	-33.465620	-41.551210	 169.531700	 10.152240	-22.284120	 4.180441	-30.701390	 79.163410	 34.458120	 2.336453	 35.944650	 0.173490	-45.057740	 6.742290	 2.060938	-3.282867	 1.889011	-1.586111	 1.460607	-2.572820	 1.341815	-94.536250	 59.019900	 174.105500	-0.039033	 18.896660	-43.326460	 23.742650	-6.699084	-12.818380	 12.366010	-36.085140	-0.268010	-4.856676	 20.537730	-3.096676	-3.780193	 22.747720	 2.099822	-4.717449	 6.608403	 0.083909	 0.132997	-5.428194	 0.324970	-0.253777	 1.941939	 2.149565	 89.357460	 61.852700	 178.980100	-15.287450	 54.114930	 0.965009	-34.238470	-6.819148	 12.804420	-21.201470	-14.722390	-7.848221	 6.171444	 15.514030	-0.596743	 2.920640	 34.742820	-7.889143	 2.491863	 15.006070	 2.703017
-0.086425	-2.654248	 1.157406	 6.969180	 1.074052	-3.630352	 17.716950	 12.449550	 175.121500	 2.016345	-25.430270	 0.714543	-118.370700	 85.921780	 114.926700	-2.315710	 38.357110	-0.232430	-33.426780	-41.365050	 169.531400	 10.151980	-22.517120	 4.221640	-30.817910	 79.378250	 34.564450	 2.336771	 35.907310	 0.172578	-45.391000	 6.737069	 2.047637	-3.340905	 1.770611	-1.667150	 1.508438	-2.519022	 1.388433	-94.534120	 59.045410	 174.105900	-0.066393	 18.941910	-43.179660	 23.927500	-6.790379	-12.885570	 12.479210	-36.250060	-0.193530	-4.859563	 20.546410	-3.115994	-3.778048	 22.774180	 2.097647	-4.713662	 6.652377	 0.081261	 0.139455	-5.435822	 0.318524	-0.191879	 1.942229	 2.137548	 89.357240	 61.826350	 178.980600	-15.192880	 54.114140	 0.802879	-34.524040	-6.911552	 12.871660	-21.400540	-14.765730	-8.007403	 6.173299	 15.315350	-0.575131	 2.934325	 34.586700	-7.900551	 2.530385	 14.812170	 2.688889
-0.087106	-2.661625	 1.156824	 6.992135	 1.071268	-3.596776	 17.628530	 12.740400	 174.934500	 2.061085	-25.437460	 0.733965	-116.645800	 85.772510	 113.206500	-2.311089	 38.806210	-0.244073	-33.385370	-41.164460	 169.536200	 10.152780	-22.774620	 4.267519	-30.959690	 79.621080	 34.692600	 2.337108	 35.867860	 0.171611	-45.727590	 6.731615	 2.033308	-3.400308	 1.643728	-1.751326	 1.558056	-2.461412	 1.436640	-94.531850	 59.072360	 174.106200	-0.088726	 18.992770	-43.019890	 24.118900	-6.887367	-12.957710	 12.597890	-36.419770	-0.115710	-4.862607	 20.555550	-3.136394	-3.775791	 22.802120	 2.095350	-4.709658	 6.698811	 0.078463	 0.146293	-5.443873	 0.311728	-0.127350	 1.942495	 2.124815	 89.357030	 61.798550	 178.981100	-15.093260	 54.111920	 0.635611	-34.823160	-7.008372	 12.941220	-21.608450	-14.806290	-8.174304	 6.175357	 15.105520	-0.552327	 2.948702	 34.421830	-7.912526	 2.570969	 14.607390	 2.674132
-0.087804	-2.669134	 1.156263	 7.015902	 1.068227	-3.562720	 17.538260	 13.010940	 174.747800	 2.107288	-25.483260	 0.755094	-115.176100	 85.614430	 111.743300	-2.306223	 39.263480	-0.256062	-33.342300	-40.958110	 169.546900	 10.154620	-23.048160	 4.316554	-31.118160	 79.882640	 34.835250	 2.337445	 35.827670	 0.170624	-46.053900	 6.726330	 2.018414	-3.458587	 1.513528	-1.835155	 1.607615	-2.402398	 1.484517	-94.529560	 59.099750	 174.106500	-0.104964	 19.048140	-42.855910	 24.311590	-6.984752	-13.028440	 12.717800	-36.587840	-0.037126	-4.865701	 20.564850	-3.157173	-3.773483	 22.830560	 2.093014	-4.705580	 6.746099	 0.075607	 0.153276	-5.452073	 0.304807	-0.062451	 1.942715	 2.111834	 89.356860	 61.770230	 178.981700	-14.989440	 54.108300	 0.467186	-35.125330	-7.106821	 13.011260	-21.817850	-14.842090	-8.342959	 6.177531	 14.891900	-0.529136	 2.963277	 34.253960	-7.924647	 2.612200	 14.398900	 2.659270
-0.088495	-2.676517	 1.155743	 7.039769	 1.065097	-3.529361	 17.448990	 13.248000	 174.568300	 2.153600	-25.572340	 0.777565	-114.014700	 85.453770	 110.590600	-2.301292	 39.713470	-0.267974	-33.298860	-40.754980	 169.563000	 10.157570	-23.327500	 4.366970	-31.284430	 80.151280	 34.984350	 2.337783	 35.788150	 0.169655	-46.358260	 6.721440	 2.003413	-3.513286	 1.384277	-1.914984	 1.655442	-2.344000	 1.530017	-94.527300	 59.126740	 174.106800	-0.116967	 19.108080	-42.693480	 24.498180	-7.078556	-13.094730	 12.834760	-36.748500	 0.039301	-4.868736	 20.574040	-3.177622	-3.771217	 22.858550	 2.090710	-4.701565	 6.792616	 0.072798	 0.160136	-5.460136	 0.297993	 0.000587	 1.942854	 2.099017	 89.356580	 61.742390	 178.982200	-14.889280	 54.103490	 0.307694	-35.419730	-7.201918	 13.077680	-22.021810	-14.871800	-8.507602	 6.179753	 14.681680	-0.506358	 2.977550	 34.088760	-7.936503	 2.652683	 14.193690	 2.644810
-0.089185	-2.683834	 1.155259	 7.063078	 1.061786	-3.496332	 17.359670	 13.451240	 174.394700	 2.200344	-25.709540	 0.801733	-113.141600	 85.289860	 109.727900	-2.296241	 40.159970	-0.279926	-33.254760	-40.554730	 169.583800	 10.161280	-23.612930	 4.418697	-31.454630	 80.425730	 35.135770	 2.338118	 35.748920	 0.168696	-46.643010	 6.717090	 1.988168	-3.564140	 1.255721	-1.991297	 1.701975	-2.286020	 1.573476	-94.525020	 59.153510	 174.107100	-0.120664	 19.169440	-42.531040	 24.680150	-7.172151	-13.161100	 12.949770	-36.903420	 0.114233	-4.871748	 20.583120	-3.197917	-3.768970	 22.886310	 2.088422	-4.697588	 6.838772	 0.069999	 0.166922	-5.468151	 0.291235	 0.062377	 1.942986	 2.086279	 89.356430	 61.714740	 178.982700	-14.788880	 54.097720	 0.151668	-35.709280	-7.297172	 13.143970	-22.221510	-14.896040	-8.669573	 6.182022	 14.473090	-0.483786	 2.991644	 33.924850	-7.948191	 2.692761	 13.990080	 2.630628
-0.089881	-2.691144	 1.154809	 7.086910	 1.058151	-3.463381	 17.268980	 13.618930	 174.225800	 2.248076	-25.901480	 0.828184	-112.544900	 85.121830	 109.144400	-2.291042	 40.606850	-0.292011	-33.209590	-40.358820	 169.609400	 10.166150	-23.908460	 4.472603	-31.626790	 80.706990	 35.288440	 2.338445	 35.709660	 0.167738	-46.910690	 6.713532	 1.972455	-3.611562	 1.126624	-2.064193	 1.747595	-2.227964	 1.615024	-94.522820	 59.180300	 174.107400	-0.116861	 19.233020	-42.368250	 24.859090	-7.265528	-13.227330	 13.063930	-37.053870	 0.188244	-4.874766	 20.592230	-3.218230	-3.766713	 22.914130	 2.086130	-4.693586	 6.884980	 0.067198	 0.173714	-5.476173	 0.284478	 0.123426	 1.943142	 2.073452	 89.356220	 61.687090	 178.983200	-14.689560	 54.090670	 0.002269	-35.996620	-7.389397	 13.206580	-22.419320	-14.915130	-8.830131	 6.184384	 14.264290	-0.461216	 3.005674	 33.760770	-7.959813	 2.732792	 13.786270	 2.616588
-0.090599	-2.698312	 1.154401	 7.110766	 1.046111	-3.414411	 17.191400	 13.743620	 174.038800	 2.269242	-26.157360	 0.845129	-111.485900	 84.965890	 108.139400	-2.284583	 41.141690	-0.306679	-33.137750	-40.155340	 169.642200	 10.081710	-24.206740	 4.489165	-31.772510	 80.824810	 35.540020	 2.338732	 35.675330	 0.166900	-47.156570	 6.712994	 1.938527	-3.652854	 1.015296	-2.123652	 1.790810	-2.172018	 1.647688	-94.519360	 59.203620	 174.110800	-0.109919	 19.295410	-42.218550	 25.025340	-7.354143	-13.287700	 13.181020	-37.169410	 0.270995	-4.877307	 20.601790	-3.236004	-3.764837	 22.937210	 2.084231	-4.689300	 6.934593	 0.064190	 0.180693	-5.481537	 0.278718	 0.183282	 1.946970	 2.070861	 89.356000	 61.661110	 178.983700	-14.595930	 54.081460	-0.132225	-36.271670	-7.480239	 13.268050	-22.614830	-14.934240	-8.974220	 6.188225	 14.060640	-0.432162	 3.018631	 33.608550	-7.970535	 2.770618	 13.593260	 2.603438
-0.091410	-2.705622	 1.154020	 7.136237	 1.013986	-3.323909	 17.141580	 13.824760	 173.789900	 2.226580	-26.503930	 0.836464	-108.959800	 84.827480	 105.764600	-2.274788	 41.920250	-0.328355	-32.997980	-39.914700	 169.687100	 9.777726	-24.518890	 4.413438	-31.840440	 80.555670	 36.020320	 2.338938	 35.650440	 0.166292	-47.390930	 6.720638	 1.859651	-3.687431	 0.935263	-2.160215	 1.832305	-2.115672	 1.664214	-94.512860	 59.220120	 174.121900	-0.094250	 19.347070	-42.085830	 25.175790	-7.444745	-13.350370	 13.314190	-37.215440	 0.381078	-4.878919	 20.613000	-3.248934	-3.763746	 22.950630	 2.083126	-4.684030	 6.995500	 0.060488	 0.188523	-5.480968	 0.275037	 0.245157	 1.959792	 2.092227	 89.355750	 61.637420	 178.984000	-14.516700	 54.067570	-0.236713	-36.538170	-7.569631	 13.327360	-22.822660	-14.962010	-9.090578	 6.195777	 13.855850	-0.385771	 3.029994	 33.474590	-7.979922	 2.805814	 13.413310	 2.591315
-0.094496	-2.732754	 1.152930	 7.233210	 0.891056	-2.985768	 16.934130	 13.721500	 172.909100	 2.075545	-28.412710	 0.819946	-102.659600	 84.257380	 100.073800	-2.233237	 44.833680	-0.413749	-32.443850	-39.151230	 169.883200	 8.637769	-25.798510	 4.119022	-31.663730	 79.560840	 37.403510	 2.339710	 35.557420	 0.164025	-48.097320	 6.755533	 1.559407	-3.768090	 0.654860	-2.245162	 1.979817	-1.915313	 1.699444	-94.488670	 59.281900	 174.163600	 0.009281	 19.575690	-41.618590	 25.714420	-7.771068	-13.566560	 13.798660	-37.345940	 0.776533	-4.884922	 20.654990	-3.297298	-3.759660	 23.000820	 2.078973	-4.664265	 7.223434	 0.046578	 0.217791	-5.478826	 0.261229	 0.469946	 2.008348	 2.170655	 89.354900	 61.548850	 178.985200	-14.219210	 54.010780	-0.589611	-37.509560	-7.898802	 13.540630	-23.581270	-15.023010	-9.512606	 6.225390	 13.089600	-0.212621	 3.072129	 32.973240	-8.014653	 2.936941	 12.739900	 2.547001
